<svg width="512" height="512" viewBox="0 0 512 512" fill="none" xmlns="http://www.w3.org/2000/svg">
  <defs>
    <linearGradient id="premium_gradient" x1="0" y1="0" x2="512" y2="512" gradientUnits="userSpaceOnUse">
      <stop offset="0" stop-color="#3B82F6" />
      <stop offset="0.5" stop-color="#8B5CF6" />
      <stop offset="1" stop-color="#EC4899" />
    </linearGradient>
    <filter id="glow" x="-20%" y="-20%" width="140%" height="140%">
      <feGaussianBlur stdDeviation="15" result="blur" />
      <feComposite in="SourceGraphic" in2="blur" operator="over" />
    </filter>
  </defs>
  
  <!-- Background Shape: Rounded Squircle -->
  <rect x="32" y="32" width="448" height="448" rx="128" fill="url(#premium_gradient)" />
  
  <!-- Stylized 'P' Monogram -->
  <!-- Vertical Stem -->
  <path d="M160 128 H240 V384 H160 V128 Z" fill="white" />
  
  <!-- Top Loop (Checkmark styled) -->
  <path d="M240 128 H304 C360 128 384 160 384 208 C384 256 360 288 304 288 H240 V224 H304 C320 224 320 216 320 208 C320 200 320 192 304 192 H240 V128 Z" fill="white" />
  
  <!-- Dot / Accent for "Pro" -->
  <circle cx="384" cy="360" r="32" fill="white" fill-opacity="0.9" />
  
  <!-- Subtle overlay for glass effect -->
  <path d="M32 160 Q 256 256 480 160 V 32 Q 256 128 32 32 Z" fill="white" fill-opacity="0.1" />
</svg>
